<?xml version="1.0" encoding="iso-8859-1"?>
<!-- Generator: Adobe Illustrator 16.0.0, SVG Export Plug-In . SVG Version: 6.00 Build 0)  -->
<!DOCTYPE svg PUBLIC "-//W3C//DTD SVG 1.1//EN" "http://www.w3.org/Graphics/SVG/1.1/DTD/svg11.dtd">
<svg version="1.1" id="Layer_1" xmlns="http://www.w3.org/2000/svg" xmlns:xlink="http://www.w3.org/1999/xlink" x="0px" y="0px"
	viewBox="0 0 270 331" style="enable-background:new 0 0 270 331;" xml:space="preserve">
<path style="fill:#FF0A18;" d="M-254.266-44.187c0,0-36.41-19.24-79.25-41.72h-15.641l-84.49,41.72l-35.44-15.81l-0.08,126.4
	c0,5.479,5.37,9.93,12,9.93h230c6.62,0,12-4.45,12-9.93v-127.97L-254.266-44.187z M-268.396,42.703
	c27.029-2.67,34.029-32.74,34.029-32.74l0.61,5.21c-2.19,21.101-18.92,30.8-18.92,30.8c-9.7,6.061-27.521,9.33-42.44-1.939
	c-14.91-11.28-12.069-29.78-12.069-29.78S-300.326,45.853-268.396,42.703z M-297.886-42.807c0,0,35.21,26.69,11.359,73.541
	l-5.399-3.69c0,0,15.05-22.15-19.311-62.75L-297.886-42.807z M-386.456-42.807l13.35,7.1c-34.36,40.6-19.31,62.75-19.31,62.75
	l-5.4,3.69C-421.666-16.117-386.456-42.807-386.456-42.807z M-449.976,9.963c0,0,7,30.07,34.03,32.74
	c31.93,3.149,38.79-28.45,38.79-28.45s2.84,18.5-12.07,29.78c-14.92,11.27-32.74,8-42.44,1.939c0,0-16.73-9.699-18.92-30.8
	L-449.976,9.963z M-346.686,16.533c-4.261,30.66-28.96,47.7-47.42,51.96c0,0-30.95,8.229-58.21-13.91l-5.38-6.81
	c0.88,0.54,43.75,26.72,78.17-1.521c40.7-33.39,12.63-77.91,12.12-78.72C-366.776-31.997-342.486-13.737-346.686,16.533z
	 M-360.576-61.267c0-10.19,8.26-18.45,18.45-18.45c10.2,0,18.46,8.26,18.46,18.45c0,10.2-8.26,18.46-18.46,18.46
	C-352.316-42.807-360.576-51.067-360.576-61.267z M-232.026,54.583c-27.26,22.14-58.21,13.91-58.21,13.91
	c-18.46-4.26-43.159-21.3-47.42-51.96c-4.199-30.27,20.091-48.53,20.721-49c-0.511,0.81-28.58,45.33,12.12,78.72
	c34.42,28.24,77.289,2.061,78.17,1.521L-232.026,54.583z"/>
<image style="overflow:visible;" width="1130" height="580" xlink:href="F:\Old D\MINE\Illustrator\Noor webscraper\noor.png"  transform="matrix(0.6667 0 0 0.6667 -1278 -213.4053)">
</image>
<rect x="-317.206" y="355.516" style="fill:#FF0A18;" width="14.17" height="121.466"/>
<image style="overflow:visible;" width="400" height="400" xlink:href="F:\Old D\MINE\Illustrator\Noor webscraper\puppeteer.png"  transform="matrix(1 0 0 1 483 -81.9209)">
</image>
<rect x="-208.166" y="210.917" width="4" height="9.083"/>
<rect x="-197.5" y="210.917" width="4" height="9.083"/>
<g>
	<path style="fill:#F40606;" d="M25.58,278.25h-5v-75.37l-10.66-4.59L9.84,320.41c0,5.29,5.37,9.59,12,9.59h14.08V209.49
		l-10.34-4.45V278.25z"/>
	<path style="fill:#F40606;" d="M145.5,173.26h-15.65l-84.49,40.3l-5.44-2.34V330h190.41V211.16l-5.58,2.4
		C224.75,213.56,188.33,194.98,145.5,173.26z"/>
	<path style="fill:#F40606;" d="M249.67,278.25h-5V205l-10.34,4.45V330h17.51c6.62,0,12-4.3,12-9.59V196.77l-14.17,6.09V278.25z"/>
	<path style="fill:#F40606;" d="M264.09,67.31l-36.55-16.36l-90.78,44.82l-0.003,0.001L44.818,50.946L9.909,67.31v16.363
		c1.708,0,34.978,17.034,74.85,37.772L9.91,158.4v20.73l35.45,15.82l92.587-45.719c46.059,24.146,86.87,45.714,86.87,45.714
		l39.272-17.455v-19.636l-72.248-35.226L264.09,86.95V67.31z M27.91,174.1c-2.01,0-3.64-1.63-3.64-3.64c0-2.01,1.63-3.64,3.64-3.64
		c2.01,0,3.63,1.63,3.63,3.64C31.54,172.47,29.92,174.1,27.91,174.1z M39.54,174.1c-2,0-3.63-1.63-3.63-3.64
		c0-2.01,1.63-3.64,3.63-3.64c2.01,0,3.64,1.63,3.64,3.64C43.18,172.47,41.55,174.1,39.54,174.1z M51.18,174.1
		c-2.01,0-3.64-1.63-3.64-3.64c0-2.01,1.63-3.64,3.64-3.64c2.01,0,3.64,1.63,3.64,3.64C54.82,172.47,53.19,174.1,51.18,174.1z"/>
	<path style="fill:#F40606;" d="M9.88,48.98l39.1-17.38c0,0,36.41,19.24,79.25,41.72h15.64l84.49-41.72L263.8,47.41L263.81,26h0.025
		l0.01-12.32c0-5.48-5.37-9.93-12-9.93h-230c-6.62,0-12,4.45-12,9.93V26H9.88V48.98z"/>
</g>
</svg>
